<svg width="200" height="200" xmlns="http://www.w3.org/2000/svg" xmlns:svg="http://www.w3.org/2000/svg">
 <!-- Created with SVG-edit - http://svg-edit.googlecode.com/ -->
 <title>Too Tutor Online</title>
 <g stroke="null">
  <title>Layer 1</title>
  <circle stroke="#000000" fill="#000000" stroke-width="6" stroke-dasharray="null" stroke-linejoin="null" stroke-linecap="null" cx="99.49999" cy="98.49999" r="92.56248" id="svg_1"/>
  <path stroke="#ffffff" id="svg_3" d="m30.66702,142.01811l137.95142,0.05122l-4.47688,6.46825l-128.94533,-0.15439l-4.52918,-6.36508l0,0l-0.00001,0l-0.00001,0l-0.00001,0zm0.94816,-86.04799l136.10787,-0.15424l3.94994,6.6357l-144.06086,0.0511l4.00304,-6.53257l0,0l0,0l0.00001,0l0.00001,0zm-13.43242,43.11746l162.86684,-0.15508l-0.21056,6.63646l-162.55091,-0.10309l-0.10542,-6.37828l0,0l-0.00001,0l0,0l0.00002,-0.00001l0.00001,-0.00001l0.00002,0l0.00001,0zm163.00163,0.61534c0,43.93117 -36.55986,79.66884 -81.50536,79.66884c-44.92656,0 -81.47961,-35.7446 -81.47961,-79.66884c0,-43.92495 36.55982,-79.66265 81.47961,-79.66265c44.9455,-0.00708 81.50536,35.7377 81.50536,79.66265zm-81.49894,-86.04797c-48.51266,0 -87.99035,38.59761 -87.99035,86.04181c0,47.44956 39.4777,86.04708 87.99035,86.04708c48.5387,0 88.00962,-38.59752 88.00962,-86.04708c0,-47.4442 -39.47092,-86.04181 -88.00962,-86.04181zm24.69225,86.04797c0,46.94366 -13.00835,79.66884 -24.69225,79.66884c-11.67106,0 -24.67928,-32.72517 -24.67928,-79.66884c0,-46.95669 13.00189,-79.66265 24.67928,-79.66265c11.67724,-0.00708 24.69225,32.70595 24.69225,79.66265zm-24.69225,-86.04797c-20.26637,0 -31.203,44.33498 -31.203,86.04181c0,41.71929 10.93663,86.04708 31.203,86.04708c20.26622,0 31.22263,-44.33493 31.22263,-86.04708c-0.00635,-41.70683 -10.95641,-86.04181 -31.22263,-86.04181zm57.82967,86.04797c0,43.93117 -25.95142,79.66884 -57.82967,79.66884c-31.872,0 -57.81002,-35.7446 -57.81002,-79.66884c0,-43.92495 25.93801,-79.66265 57.81002,-79.66265c31.87826,-0.00708 57.82967,35.7377 57.82967,79.66265zm-57.82967,-86.04797c-35.46525,0 -64.33368,38.59761 -64.33368,86.04181c0,47.44956 28.86842,86.04708 64.33368,86.04708c35.47771,0 64.34028,-38.59752 64.34028,-86.04708c0,-47.4442 -28.86256,-86.04181 -64.34028,-86.04181z" stroke-linecap="null" stroke-linejoin="null" stroke-dasharray="null" stroke-width="0" fill="#ffffff"/>
  <path stroke="#999999" fill="#999999" d="m59.36675,144.34354l34.43748,0l16.65022,-86.04705l27.85863,0l-16.7314,86.04705l33.86893,0l-3.89859,19.67827l-96.00264,0l3.81735,-19.67827l0.00002,0l0.00001,0z" stroke-width="8" transform="rotate(-180 105.49999237060547,111.15914916992188) " id="svg_2"/>
  <path id="svg_4" stroke="#000000" fill="#ffffff" d="m51.86676,136.68439l34.43748,0l16.65022,-86.04704l27.85861,0l-16.73138,86.04704l33.86893,0l-3.89859,19.67827l-96.00264,0l3.81734,-19.67827l0.00002,0l0.00002,0z" stroke-width="8" transform="rotate(-180 98,103.5) "/>
 </g>
</svg>