<svg width="256" height="256" xmlns="http://www.w3.org/2000/svg" xmlns:svg="http://www.w3.org/2000/svg">
 <!-- Created with SVG-edit - http://svg-edit.googlecode.com/ -->
 <title>Too Tutor Online</title>
 <g stroke="null">
  <title>Layer 1</title>
  <path id="svg_1" d="m8,128c0,-66.29834 53.70166,-120 120,-120c66.29834,0 120,53.70166 120,120c0,66.29834 -53.70166,120 -120,120c-66.29834,0 -120,-53.70166 -120,-120z" stroke-linecap="null" stroke-linejoin="null" stroke-dasharray="null" stroke-width="6" stroke="#000000" fill="#000000"/>
  <path id="svg_3" d="m36.81134,183.59027l182.62888,0.06783l-5.92679,8.56306l-170.70604,-0.20438l-5.99601,-8.42651l0,0l-0.00001,0l-0.00002,0l-0.00001,0zm1.25523,-113.9158l180.18827,-0.20419l5.22919,8.78477l-190.71695,0.06765l5.29948,-8.64823l0,0l0,0l0.00001,0l0.00001,0zm-17.78269,57.08164l215.6135,-0.2053l-0.27875,8.78577l-215.19525,-0.13647l-0.13956,-8.44398l0,0l-0.00001,0l0,0l0.00002,-0.00001l0.00001,-0.00001l0.00002,0l0.00001,0zm215.79193,0.81463c0,58.15887 -48.40027,105.47067 -107.90198,105.47067c-59.47663,0 -107.86789,-47.32097 -107.86789,-105.47067c0,-58.15065 48.40022,-105.46249 107.86789,-105.46249c59.50171,-0.00937 107.90198,47.31185 107.90198,105.46249zm-107.89348,-113.91578c-64.22415,0 -116.48723,51.09797 -116.48723,113.90763c0,62.81674 52.26309,113.91461 116.48723,113.91461c64.25862,0 116.51274,-51.09787 116.51274,-113.91461c0,-62.80966 -52.25412,-113.90763 -116.51274,-113.90763zm32.68918,113.91578c0,62.147 -17.22128,105.47067 -32.68918,105.47067c-15.45089,0 -32.672,-43.32367 -32.672,-105.47067c0,-62.16425 17.21273,-105.46249 32.672,-105.46249c15.45908,-0.00937 32.68918,43.29822 32.68918,105.46249zm-32.68918,-113.91578c-26.82991,0 -41.30852,58.69347 -41.30852,113.90763c0,55.23065 14.47861,113.91461 41.30852,113.91461c26.82971,0 41.33452,-58.69342 41.33452,-113.91461c-0.00841,-55.21416 -14.50481,-113.90763 -41.33452,-113.90763zm76.55861,113.91578c0,58.15887 -34.35614,105.47067 -76.55861,105.47067c-42.19419,0 -76.53259,-47.32097 -76.53259,-105.47067c0,-58.15065 34.33839,-105.46249 76.53259,-105.46249c42.20247,-0.00937 76.55861,47.31185 76.55861,105.46249zm-76.55861,-113.91578c-46.95116,0 -85.16902,51.09797 -85.16902,113.90763c0,62.81674 38.21785,113.91461 85.16902,113.91461c46.96765,0 85.17775,-51.09787 85.17775,-113.91461c0,-62.80966 -38.2101,-113.90763 -85.17775,-113.90763z" stroke-linecap="null" stroke-linejoin="null" stroke-dasharray="null" stroke-width="0" fill="#ffffff" stroke="#ffffff"/>
  <path fill="#999999" d="m67.12445,193.46429l50.2944,0l24.31688,-125.66782l40.68626,0l-24.43547,125.66782l49.46405,0l-5.69371,28.73923l-140.20752,0l5.57507,-28.73923l0.00002,0l0.00001,0z" stroke="#999999" stroke-width="8" id="svg_6" transform="rotate(-180 134.49996948242188,145) "/>
  <path fill="#ffffff" d="m55.12448,180.96429l50.2944,0l24.31689,-125.66782l40.68626,0l-24.43547,125.66782l49.46405,0l-5.69371,28.73923l-140.20752,0l5.57507,-28.73923l0.00002,0l0.00001,0z" stroke="#000000" stroke-width="8" transform="rotate(-180 122.50000000000001,132.5) " id="svg_2"/>
 </g>
</svg>